<?xml version="1.0" standalone="no"?>
<!DOCTYPE svg PUBLIC "-//W3C//DTD SVG 20010904//EN"
 "http://www.w3.org/TR/2001/REC-SVG-20010904/DTD/svg10.dtd">
<svg version="1.0" xmlns="http://www.w3.org/2000/svg"
 width="505.000000pt" height="219.000000pt" viewBox="0 0 505.000000 219.000000"
 preserveAspectRatio="xMidYMid meet">

    <g transform="translate(0.000000,219.000000) scale(0.100000,-0.100000)"
    fill="#000000" stroke="none">
        <path d="M2831 1900 c-145 -49 -265 -91 -268 -93 -2 -2 123 -53 277 -112 l280
        -108 268 103 c147 56 273 106 281 110 15 8 -519 191 -554 189 -11 0 -139 -41
        -284 -89z"/>
        <path d="M2356 1634 c4 -16 19 -57 35 -91 l28 -63 -352 -2 -352 -3 -3 -130
        c-4 -118 -5 -127 -16 -95 l-13 35 -248 7 c-227 7 -253 6 -304 -12 l-55 -18
        -59 64 c-76 82 -168 130 -282 144 -44 6 -163 10 -265 8 l-185 -3 -3 -473 -2
        -473 257 3 c240 3 262 5 311 26 30 12 70 33 89 47 l36 24 36 -29 c61 -49 128
        -73 216 -78 104 -6 179 11 246 53 l54 34 17 -39 c16 -37 19 -39 70 -42 l53 -3
        29 -84 29 -83 27 83 27 84 50 3 51 3 22 62 c32 90 40 91 40 9 l0 -72 190 0
        190 0 0 136 c0 127 9 164 25 96 18 -82 149 -209 262 -253 83 -33 243 -33 325
        0 72 28 165 96 198 144 14 20 27 37 30 37 3 0 16 -17 30 -37 33 -49 127 -117
        198 -143 79 -30 190 -37 269 -16 80 20 129 45 196 100 l55 44 21 -28 c11 -16
        42 -42 68 -57 42 -25 57 -28 128 -27 139 2 187 2 295 0 122 -1 180 16 241 71
        52 47 75 88 87 153 14 72 0 144 -37 196 l-29 42 44 66 c24 36 44 70 44 75 0
        13 -117 104 -165 128 -65 33 -141 46 -225 40 -43 -3 -87 -10 -99 -16 -21 -12
        -21 -11 -21 104 l0 115 -179 0 -179 0 30 76 c16 42 27 79 24 81 -3 3 -23 -10
        -44 -29 -178 -161 -447 -249 -757 -249 -316 0 -553 79 -773 258 l-33 27 7 -30z
        m1524 -269 c0 -47 -3 -85 -7 -85 -5 1 -23 14 -42 30 l-34 29 38 56 c21 30 40
        55 42 55 1 0 3 -38 3 -85z m250 -283 c0 -305 1 -313 47 -327 16 -4 28 0 43 18
        l22 25 41 -23 c94 -52 183 -56 213 -10 28 43 1 69 -103 100 -160 49 -192 79
        -180 167 7 51 32 86 83 116 35 20 49 22 129 19 68 -2 100 -9 132 -25 23 -12
        44 -26 47 -30 3 -5 -6 -25 -19 -45 l-25 -36 -42 24 c-57 31 -111 40 -148 25
        -33 -14 -49 -53 -33 -79 5 -8 60 -31 122 -51 134 -43 162 -66 168 -137 9 -105
        -68 -167 -205 -166 -42 1 -95 8 -117 15 -33 12 -46 12 -70 2 -17 -7 -61 -13
        -98 -14 -62 0 -71 3 -96 28 l-28 28 -2 332 -1 332 60 0 60 0 0 -288z m-3319
        241 c99 -45 174 -143 186 -244 3 -27 10 -49 14 -49 5 0 9 4 9 10 0 21 68 85
        115 106 101 48 246 24 317 -52 41 -44 68 -112 68 -171 l0 -53 -200 0 c-139 0
        -200 -3 -200 -11 0 -6 7 -27 16 -46 40 -84 156 -102 226 -36 26 24 28 25 77
        12 28 -7 51 -16 51 -20 0 -19 -58 -73 -104 -96 -41 -21 -65 -26 -126 -26 -45
        0 -90 7 -111 16 -58 24 -115 82 -140 142 l-23 55 -27 -49 c-70 -123 -170 -160
        -426 -161 l-123 0 0 351 0 351 178 -4 c154 -3 183 -6 223 -25z m1607 -25 l-3
        -53 -110 -5 -110 -5 -3 -292 -2 -293 -65 0 -65 0 0 295 0 295 -110 0 -110 0 0
        55 0 55 291 0 290 0 -3 -52z m452 -60 c20 -5 57 -25 84 -44 149 -109 170 -322
        44 -459 -66 -73 -129 -100 -233 -99 -66 0 -89 5 -131 26 -67 35 -138 115 -160
        180 -33 101 0 268 53 268 19 0 23 5 23 29 0 22 9 37 33 55 78 60 179 75 287
        44z m780 0 c77 -24 140 -80 182 -162 29 -57 36 -167 14 -234 -22 -65 -93 -145
        -160 -180 -43 -22 -64 -26 -136 -26 -72 0 -93 4 -136 26 -67 35 -138 115 -160
        180 -22 68 -15 177 15 236 74 145 225 208 381 160z m-2047 -115 c84 -263 109
        -340 114 -353 3 -8 36 77 72 190 l67 205 61 3 61 3 -69 -188 c-39 -103 -82
        -221 -96 -261 l-26 -73 -71 3 -70 3 -93 250 c-51 138 -92 253 -93 258 0 4 29
        7 64 7 l64 0 15 -47z m729 -38 c-2 -14 -6 -25 -8 -25 -2 0 -4 11 -4 25 0 14 4
        25 9 25 4 0 6 -11 3 -25z"/>
        <path d="M547 1233 c-4 -3 -7 -109 -7 -235 l0 -228 88 0 c102 0 156 20 195 71
        38 50 49 86 50 159 0 120 -62 207 -163 229 -56 12 -153 15 -163 4z m180 -151
        c18 -22 26 -76 19 -116 -6 -34 -27 -58 -58 -69 -16 -6 -18 3 -18 104 0 110 0
        110 23 104 12 -4 28 -14 34 -23z"/>
        <path d="M1220 1077 c-41 -10 -66 -31 -86 -69 -29 -57 -27 -58 122 -58 l137 0
        -7 33 c-14 68 -93 113 -166 94z"/>
        <path d="M2732 1072 c-7 -5 -10 -16 -7 -25 4 -8 1 -25 -5 -37 -9 -17 -19 -21
        -45 -18 -31 4 -34 1 -40 -29 -3 -18 0 -46 8 -65 38 -90 142 -118 211 -57 57
        50 66 121 23 183 -31 44 -110 70 -145 48z"/>
        <path d="M3495 1066 c-92 -41 -107 -157 -30 -225 30 -26 44 -31 85 -31 41 0
        55 5 84 31 38 33 58 85 50 128 -5 24 -10 26 -39 23 -26 -3 -36 1 -45 18 -6 12
        -9 29 -5 37 12 33 -45 43 -100 19z"/>
        <path d="M2800 1566 c0 -108 -12 -96 120 -121 134 -25 465 -18 512 11 10 6 11
        204 1 204 -5 0 -77 -27 -160 -59 l-153 -59 -152 59 c-84 32 -156 59 -160 59
        -5 0 -8 -42 -8 -94z"/>
        <path d="M3093 534 c-32 -36 -60 -70 -61 -75 -5 -12 117 -219 128 -219 8 0
        130 201 130 214 0 12 -120 146 -130 146 -5 0 -35 -30 -67 -66z"/>
    </g>
</svg>
